<svg xmlns="http://www.w3.org/2000/svg" width="48.584" height="48.584" viewBox="0 0 48.584 48.584"><defs><style>.a{fill:#ffffff;}</style></defs><path class="a" d="M44.029,8.35h-3.8v-3.8A4.56,4.56,0,0,0,35.679,0H12.905A4.56,4.56,0,0,0,8.35,4.555v17.46h-3.8A4.56,4.56,0,0,0,0,26.569V34.16a4.56,4.56,0,0,0,4.555,4.555h3.8v5.314a4.56,4.56,0,0,0,4.555,4.555H35.679a4.56,4.56,0,0,0,4.555-4.555V25.051h3.8A4.56,4.56,0,0,0,48.584,20.5V12.905A4.56,4.56,0,0,0,44.029,8.35ZM3.036,34.16V26.569a1.52,1.52,0,0,1,1.518-1.518H19.737a1.52,1.52,0,0,1,1.518,1.518V34.16a1.52,1.52,0,0,1-1.518,1.518H18.219A1.518,1.518,0,0,0,16.7,37.2v1.215L12.124,35.87c-.491-.273-.289-.191-7.569-.191A1.52,1.52,0,0,1,3.036,34.16ZM35.679,45.547H12.905a1.52,1.52,0,0,1-1.518-1.518v-5.1l6.095,3.386a1.519,1.519,0,0,0,2.256-1.327V38.715a4.56,4.56,0,0,0,4.555-4.555V26.569a4.56,4.56,0,0,0-4.555-4.555h-8.35V4.555a1.52,1.52,0,0,1,1.518-1.518h3.46l.413,1.239a1.518,1.518,0,0,0,1.44,1.038H30.365a1.518,1.518,0,0,0,1.44-1.038l.413-1.239h3.46A1.52,1.52,0,0,1,37.2,4.555v3.8h-8.35a4.56,4.56,0,0,0-4.555,4.555V20.5a4.56,4.56,0,0,0,4.555,4.555v2.277a1.519,1.519,0,0,0,1.518,1.518c.557,0,.318.042,6.832-3.577V44.029a1.52,1.52,0,0,1-1.518,1.518ZM45.547,20.5a1.52,1.52,0,0,1-1.518,1.518H37.2c-.532,0-.272-.068-5.314,2.734V23.533a1.518,1.518,0,0,0-1.518-1.518H28.847A1.52,1.52,0,0,1,27.328,20.5V12.905a1.52,1.52,0,0,1,1.518-1.518H44.029a1.52,1.52,0,0,1,1.518,1.518Z"/><path class="a" d="M69.664,305.518A1.518,1.518,0,0,0,68.146,304H57.518a1.518,1.518,0,1,0,0,3.036H68.146A1.518,1.518,0,0,0,69.664,305.518Z" transform="translate(-50.686 -275.153)"/><path class="a" d="M324.146,160H313.518a1.518,1.518,0,0,0,0,3.036h10.628a1.518,1.518,0,0,0,0-3.036Z" transform="translate(-282.394 -144.818)"/></svg>