<svg xmlns="http://www.w3.org/2000/svg" width="58.674" height="58.755" viewBox="0 0 58.674 58.755"><defs><style>.a,.b{fill:#ffffff;}.a{stroke:#ffffff;}.b{stroke:#ffffff;}</style></defs><g transform="translate(0.5 0.542)"><g transform="translate(0 0.305)"><path class="a" d="M56.842,16.953h0l0,0-3.722-.531a.957.957,0,0,1-.439-1.713l3.008-2.256a.957.957,0,0,0,.191-1.34L52.434,6.519a.957.957,0,0,0-1.34-.191L48.087,8.583a.957.957,0,0,1-1.525-.9l.532-3.722a.957.957,0,0,0-.811-1.083h0L40.6,2.067a.957.957,0,0,0-1.083.811h0L38.987,6.6a.957.957,0,0,1-1.713.439L35.019,4.031a.957.957,0,0,0-1.34-.191L30.8,6a18.513,18.513,0,0,0-3.913,0A18.179,18.179,0,0,0,10.862,22.3c-.026.271-.035.54-.049.808h-.287a.957.957,0,0,0-.936.765l-.661,3.144L6.28,25.19a.957.957,0,0,0-1.22.111l-2.87,2.87a.957.957,0,0,0-.111,1.219L3.9,32.034l-3.145.661A.957.957,0,0,0,0,33.632v3.827a.957.957,0,0,0,.76.937l3.145.661L2.087,41.7A.957.957,0,0,0,2.2,42.919l2.87,2.87a.957.957,0,0,0,1.22.111l2.644-1.823.661,3.145a.957.957,0,0,0,.936.765h3.827a.957.957,0,0,0,.937-.76l.661-3.145L18.6,45.9a.957.957,0,0,0,1.219-.111L21.3,44.3v2.727a3.815,3.815,0,0,0,1.914,3.3v5.316a3.827,3.827,0,0,0,3.827,3.827H30.87A3.827,3.827,0,0,0,34.7,55.638V50.322a3.815,3.815,0,0,0,1.914-3.3V43.24a4.688,4.688,0,0,1,2.213-3.906,18.362,18.362,0,0,0,2.252-1.722L39.8,36.186a16.289,16.289,0,0,1-2.016,1.541A6.59,6.59,0,0,0,34.7,43.24v3.787a1.914,1.914,0,0,1-1.914,1.914H25.129a1.914,1.914,0,0,1-1.914-1.914V43.16a6.437,6.437,0,0,0-3.035-5.4,16.217,16.217,0,0,1,8.57-29.948,1.04,1.04,0,0,0-.037.1.957.957,0,0,0,.183.709l2.255,3.007a.937.937,0,0,1,.057,1.062.951.951,0,0,1-.957.46l-3.722-.532a.957.957,0,0,0-1.083.811h0l-.812,5.682a.957.957,0,0,0,.811,1.083h0l3.722.532a.957.957,0,0,1,.439,1.713L26.6,24.7a.957.957,0,0,0-.191,1.34l3.444,4.593a.957.957,0,0,0,1.34.191L34.2,28.569a.957.957,0,0,1,1.52.9l-.531,3.722A.957.957,0,0,0,36,34.274h0l5.683.812a1.06,1.06,0,0,0,.135.009.957.957,0,0,0,.948-.821l.531-3.722a.957.957,0,0,1,1.713-.439l2.256,3.007a.957.957,0,0,0,1.34.191L53.2,29.867a.957.957,0,0,0,.191-1.34l-2.255-3.007a.94.94,0,0,1-.057-1.062A.929.929,0,0,1,52.037,24l3.722.531a.957.957,0,0,0,1.083-.811h0l.811-5.683A.957.957,0,0,0,56.842,16.953Zm-31.713,33.9h7.654v1.914H25.129Zm0,3.827h7.654v.957a1.914,1.914,0,0,1-1.914,1.914H27.043a1.914,1.914,0,0,1-1.914-1.914Zm-7.617-16.5a18.084,18.084,0,0,0,1.635,1.191,4.67,4.67,0,0,1,1.928,2.448l-2.052,2.049L17.036,42.5a1.914,1.914,0,0,0-2.958,1.182l-.5,2.389H11.3l-.5-2.385A1.914,1.914,0,0,0,7.842,42.5L5.854,43.869,4.11,42.13,5.48,40.144A1.914,1.914,0,0,0,4.3,37.184l-2.385-.5V34.408l2.385-.5a1.914,1.914,0,0,0,1.182-2.954L4.11,28.96l1.743-1.739,1.989,1.37A1.914,1.914,0,0,0,10.8,27.408l.167-.8a18.221,18.221,0,0,0,.759,3.245,5.741,5.741,0,1,0,5.786,8.324Zm-1.486-1.348a3.822,3.822,0,1,1-3.588-5.115h.036A18.121,18.121,0,0,0,16.026,36.833ZM55.077,22.5,52.3,22.1a2.87,2.87,0,0,0-2.7,4.564l1.681,2.242L48.22,31.2l-1.682-2.241A2.87,2.87,0,0,0,41.4,30.279l-.388,2.779-3.788-.542.4-2.775a2.87,2.87,0,0,0-4.564-2.7l-2.242,1.681-2.3-3.062,2.241-1.682a2.87,2.87,0,0,0-1.316-5.138l-2.775-.4.542-3.788,2.775.4a2.87,2.87,0,0,0,2.7-4.564L31,8.242l3.062-2.3,1.682,2.242a2.87,2.87,0,0,0,5.138-1.316l.4-2.775,3.788.541-.4,2.775a2.87,2.87,0,0,0,4.564,2.7l2.242-1.681,2.3,3.062-2.242,1.682a2.87,2.87,0,0,0,1.316,5.138l2.775.4Z" transform="translate(0 -2.057)"/></g><g transform="translate(33.488 9.169)"><path class="b" d="M287.654,76.171a7.654,7.654,0,1,0,7.654,7.654A7.654,7.654,0,0,0,287.654,76.171Zm0,13.4a5.741,5.741,0,1,1,5.741-5.741A5.741,5.741,0,0,1,287.654,89.566Z" transform="translate(-280 -76.171)"/></g><g transform="translate(28 42.404)"><rect class="b" width="1.914" height="2.87"/></g><g transform="translate(15.553 10.977)"><path class="a" d="M139.263,113.321a11.482,11.482,0,0,1-1.938-20.411L136.3,91.291a13.4,13.4,0,0,0,2.267,23.811,6.108,6.108,0,0,1,3.923,5.7H144.4A8.006,8.006,0,0,0,139.263,113.321Z" transform="translate(-130.044 -91.291)"/></g><g transform="translate(47.136 35.707)"><rect class="b" width="6.698" height="1.914"/></g><g transform="translate(45.567 40.712)"><g transform="translate(0 0)"><rect class="b" width="1.914" height="7.473" transform="matrix(0.64, -0.768, 0.768, 0.64, 0, 1.47)"/></g></g><g transform="translate(41.395 43.361)"><rect class="b" width="1.914" height="6.698"/></g><g transform="translate(0.977 14.685)"><g transform="translate(0 0)"><rect class="b" width="7.89" height="1.913" transform="translate(0 1.913) rotate(-14.035)"/></g></g><g transform="translate(2.566 5.268)"><g transform="translate(0 0)"><rect class="b" width="1.913" height="8.23" transform="matrix(0.581, -0.814, 0.814, 0.581, 0, 1.556)"/></g></g><g transform="translate(10.764 0.067)"><g transform="translate(0 0)"><rect class="b" width="1.914" height="7.9" transform="matrix(0.969, -0.248, 0.248, 0.969, 0, 0.474)"/></g></g></g></svg>