<svg xmlns="http://www.w3.org/2000/svg" width="48.584" height="48.584" viewBox="0 0 48.584 48.584"><defs><style>.a{fill:#ffffff;}</style></defs><path class="a" d="M20.722,147.1a10.471,10.471,0,0,0-5.584-6.685A6.049,6.049,0,0,0,16.7,136.35v-2.277a6.073,6.073,0,1,0-12.146,0v2.277a6.049,6.049,0,0,0,1.564,4.063A10.477,10.477,0,0,0,.534,147.1,9.861,9.861,0,0,0,0,149.255c0,2.128,2.874,2.847,3.818,3.083a32.88,32.88,0,0,0,13.619,0c.944-.236,3.818-.955,3.818-3.083A9.639,9.639,0,0,0,20.722,147.1ZM7.591,136.35v-2.277a3.036,3.036,0,1,1,6.073,0v2.277a3.036,3.036,0,0,1-6.073,0ZM3.179,148.937l.284-1.042a7.438,7.438,0,0,1,11.672-3.948,8.074,8.074,0,0,1,2.941,4.99c-2.911,1.43-11.976,1.435-14.9,0Z" transform="translate(0 -115.854)"/><path class="a" d="M378.183,352.445a1.518,1.518,0,0,0-1.073-.445h-7.591A1.518,1.518,0,0,0,368,353.518v12.146a1.518,1.518,0,0,0,1.518,1.518h10.628a1.518,1.518,0,0,0,1.518-1.518v-9.109a1.518,1.518,0,0,0-.445-1.074Zm.445,11.7h-7.591v-9.109h5.444l2.147,2.147Z" transform="translate(-333.081 -318.599)"/><path class="a" d="M378.183,176.445a1.518,1.518,0,0,0-1.073-.445h-7.591A1.518,1.518,0,0,0,368,177.518v12.146a1.518,1.518,0,0,0,1.518,1.518h10.628a1.518,1.518,0,0,0,1.518-1.518v-9.109a1.518,1.518,0,0,0-.445-1.074Zm.445,11.7h-7.591v-9.109h5.444l2.147,2.147Z" transform="translate(-333.081 -159.299)"/><path class="a" d="M381.219,3.481,378.183.445A1.518,1.518,0,0,0,377.109,0h-7.591A1.518,1.518,0,0,0,368,1.518V13.664a1.518,1.518,0,0,0,1.518,1.518h10.628a1.518,1.518,0,0,0,1.518-1.518V4.555A1.518,1.518,0,0,0,381.219,3.481Zm-2.592,8.665h-7.591V3.036h5.444l2.147,2.147Z" transform="translate(-333.081 0)"/><path class="a" d="M205.664,59.036a1.518,1.518,0,0,0,0-3.036h-6.073a1.518,1.518,0,0,0-1.518,1.518V73.46h-4.555a1.518,1.518,0,0,0,0,3.036h4.555V91.679a1.518,1.518,0,0,0,1.518,1.518h6.073a1.518,1.518,0,0,0,0-3.036h-4.555V76.5h4.555a1.518,1.518,0,0,0,0-3.036h-4.555V59.036Z" transform="translate(-173.781 -50.686)"/></svg>