<svg xmlns="http://www.w3.org/2000/svg" width="52" height="52" viewBox="0 0 52 52"><defs><style>.a{fill:#cc0001;}</style></defs><g transform="translate(-0.002)"><path class="a" d="M22.181,268.44a11.206,11.206,0,0,0-5.976-7.155,6.474,6.474,0,0,0,1.672-4.347V254.5a6.5,6.5,0,1,0-13,0v2.438a6.474,6.474,0,0,0,1.674,4.349,11.214,11.214,0,0,0-5.978,7.153A10.544,10.544,0,0,0,0,270.75c0,2.278,3.076,3.047,4.086,3.3a35.194,35.194,0,0,0,14.577,0c1.011-.253,4.086-1.022,4.086-3.3A10.316,10.316,0,0,0,22.181,268.44Zm-14.054-11.5V254.5a3.25,3.25,0,1,1,6.5,0v2.438a3.25,3.25,0,1,1-6.5,0ZM3.4,270.409l.3-1.115A7.961,7.961,0,0,1,16.2,265.069a8.642,8.642,0,0,1,3.148,5.34c-3.115,1.53-12.819,1.536-15.945,0Z" transform="translate(0 -222.813)"/><path class="a" d="M310.695,270.322c-.583-2.136-1.421-6.623-6.49-9.038a6.474,6.474,0,0,0,1.672-4.347V254.5a6.5,6.5,0,1,0-13,0v2.438a6.474,6.474,0,0,0,1.674,4.349,11.214,11.214,0,0,0-5.978,7.153A10.556,10.556,0,0,0,288,270.75c0,3.574,7.819,4.063,11.375,4.063s11.375-.489,11.375-4.062A1.624,1.624,0,0,0,310.695,270.322Zm-14.568-13.385V254.5a3.25,3.25,0,1,1,6.5,0v2.438a3.25,3.25,0,0,1-6.5,0ZM291.4,270.409l.3-1.115a7.961,7.961,0,0,1,12.493-4.226,8.642,8.642,0,0,1,3.148,5.34C304.235,271.94,294.531,271.945,291.4,270.409Z" transform="translate(-258.75 -222.813)"/><path class="a" d="M148.088,26.05a35.192,35.192,0,0,0,14.577,0c1.011-.253,4.086-1.022,4.086-3.3a1.624,1.624,0,0,0-.057-.428c-.583-2.136-1.421-6.623-6.49-9.038a6.474,6.474,0,0,0,1.672-4.347V6.5a6.5,6.5,0,1,0-13,0V8.937a6.474,6.474,0,0,0,1.674,4.349,11.214,11.214,0,0,0-5.978,7.153A10.553,10.553,0,0,0,144,22.75C144,25.028,147.078,25.8,148.088,26.05Zm4.039-17.112V6.5a3.25,3.25,0,0,1,6.5,0V8.937a3.25,3.25,0,0,1-6.5,0Zm-4.418,12.357A7.961,7.961,0,0,1,160.2,17.069a8.641,8.641,0,0,1,3.148,5.34c-3.115,1.53-12.819,1.536-15.945,0Z" transform="translate(-129.375 0)"/><path class="a" d="M209.748,290.563a1.627,1.627,0,0,0,1.016-2.894l-3.453-2.762v-3.281a1.625,1.625,0,0,0-3.25,0v3.281l-3.453,2.762a1.625,1.625,0,1,0,2.03,2.538l3.047-2.438,3.047,2.438A1.618,1.618,0,0,0,209.748,290.563Z" transform="translate(-179.684 -251.563)"/></g></svg>